<svg xmlns="http://www.w3.org/2000/svg" xmlns:xlink="http://www.w3.org/1999/xlink" width="500" zoomAndPan="magnify" viewBox="0 0 375 374.999991" height="500" preserveAspectRatio="xMidYMid meet" version="1.0"><defs><clipPath id="9f501d586f"><path d="M 0 363.355469 L 6.75 363.355469 L 6.75 369 L 0 369 Z M 0 363.355469 " clip-rule="nonzero"/></clipPath><clipPath id="6d2d74ecfc"><path d="M 1 369 L 6 369 L 6 369.355469 L 1 369.355469 Z M 1 369 " clip-rule="nonzero"/></clipPath><clipPath id="8d52573034"><path d="M 0 367 L 6.75 367 L 6.75 369 L 0 369 Z M 0 367 " clip-rule="nonzero"/></clipPath><clipPath id="1c0b1489c2"><path d="M 2 368 L 5 368 L 5 369.355469 L 2 369.355469 Z M 2 368 " clip-rule="nonzero"/></clipPath><clipPath id="dee6822fa1"><path d="M 3 363.355469 L 6.75 363.355469 L 6.75 367 L 3 367 Z M 3 363.355469 " clip-rule="nonzero"/></clipPath><clipPath id="f80a99a088"><path d="M 4 363.355469 L 6.75 363.355469 L 6.75 366 L 4 366 Z M 4 363.355469 " clip-rule="nonzero"/></clipPath><clipPath id="8105959d9d"><path d="M 3 364 L 6.75 364 L 6.75 367 L 3 367 Z M 3 364 " clip-rule="nonzero"/></clipPath><clipPath id="09e5862654"><path d="M 3 363.355469 L 6 363.355469 L 6 366 L 3 366 Z M 3 363.355469 " clip-rule="nonzero"/></clipPath></defs><path fill="#ffd66c" d="M 147.027344 297.414062 L 131.507812 349.136719 L 243.492188 349.136719 L 227.972656 297.414062 Z M 147.027344 297.414062 " fill-opacity="1" fill-rule="nonzero"/><path fill="#ffd66c" d="M 103.449219 0 L 19.398438 0 C 18.761719 0 18.128906 0.03125 17.496094 0.09375 C 16.863281 0.15625 16.234375 0.25 15.613281 0.371094 C 14.988281 0.496094 14.375 0.652344 13.765625 0.835938 C 13.15625 1.019531 12.5625 1.234375 11.972656 1.476562 C 11.386719 1.71875 10.8125 1.992188 10.253906 2.289062 C 9.691406 2.589844 9.148438 2.914062 8.621094 3.269531 C 8.09375 3.621094 7.582031 4 7.089844 4.402344 C 6.601562 4.804688 6.128906 5.230469 5.679688 5.679688 C 5.230469 6.128906 4.804688 6.601562 4.402344 7.089844 C 4 7.582031 3.621094 8.09375 3.269531 8.621094 C 2.914062 9.148438 2.589844 9.691406 2.289062 10.253906 C 1.992188 10.8125 1.71875 11.386719 1.476562 11.972656 C 1.234375 12.5625 1.019531 13.15625 0.835938 13.765625 C 0.652344 14.375 0.496094 14.988281 0.371094 15.613281 C 0.25 16.234375 0.15625 16.863281 0.09375 17.496094 C 0.03125 18.128906 0 18.761719 0 19.398438 L 0 219.828125 L 103.449219 219.828125 Z M 45.257812 200.429688 L 19.398438 200.429688 L 19.398438 174.570312 L 45.257812 174.570312 Z M 45.257812 148.707031 L 19.398438 148.707031 L 19.398438 122.84375 L 45.257812 122.84375 Z M 45.257812 96.984375 L 19.398438 96.984375 L 19.398438 71.121094 L 45.257812 71.121094 Z M 45.257812 45.257812 L 19.398438 45.257812 L 19.398438 19.398438 L 45.257812 19.398438 Z M 90.515625 206.898438 L 64.65625 206.898438 L 64.65625 193.964844 L 90.515625 193.964844 Z M 90.515625 181.035156 L 64.65625 181.035156 L 64.65625 168.101562 L 90.515625 168.101562 Z M 90.515625 155.171875 L 64.65625 155.171875 L 64.65625 142.242188 L 90.515625 142.242188 Z M 90.515625 129.308594 L 64.65625 129.308594 L 64.65625 116.378906 L 90.515625 116.378906 Z M 90.515625 103.449219 L 64.65625 103.449219 L 64.65625 90.515625 L 90.515625 90.515625 Z M 90.515625 77.585938 L 64.65625 77.585938 L 64.65625 64.65625 L 90.515625 64.65625 Z M 90.515625 51.722656 L 64.65625 51.722656 L 64.65625 38.792969 L 90.515625 38.792969 Z M 90.515625 25.863281 L 64.65625 25.863281 L 64.65625 12.929688 L 90.515625 12.929688 Z M 90.515625 25.863281 " fill-opacity="1" fill-rule="nonzero"/><path fill="#ffd66c" d="M 109.914062 362.070312 L 265.085938 362.070312 L 265.085938 375 L 109.914062 375 Z M 109.914062 362.070312 " fill-opacity="1" fill-rule="nonzero"/><path fill="#ffd66c" d="M 0 265.085938 C 0 265.722656 0.03125 266.355469 0.09375 266.988281 C 0.15625 267.621094 0.25 268.246094 0.371094 268.871094 C 0.496094 269.492188 0.652344 270.109375 0.835938 270.714844 C 1.019531 271.324219 1.234375 271.921875 1.476562 272.507812 C 1.71875 273.097656 1.992188 273.667969 2.289062 274.230469 C 2.589844 274.789062 2.914062 275.335938 3.269531 275.863281 C 3.621094 276.390625 4 276.898438 4.402344 277.390625 C 4.804688 277.882812 5.230469 278.351562 5.679688 278.800781 C 6.128906 279.25 6.601562 279.675781 7.089844 280.078125 C 7.582031 280.484375 8.09375 280.859375 8.621094 281.214844 C 9.148438 281.566406 9.691406 281.894531 10.253906 282.191406 C 10.8125 282.492188 11.386719 282.761719 11.972656 283.007812 C 12.5625 283.25 13.15625 283.464844 13.765625 283.648438 C 14.375 283.832031 14.988281 283.984375 15.613281 284.109375 C 16.234375 284.234375 16.863281 284.328125 17.496094 284.390625 C 18.128906 284.453125 18.761719 284.484375 19.398438 284.484375 L 355.601562 284.484375 C 356.238281 284.484375 356.871094 284.453125 357.503906 284.390625 C 358.136719 284.328125 358.765625 284.234375 359.386719 284.109375 C 360.011719 283.984375 360.625 283.832031 361.234375 283.648438 C 361.84375 283.464844 362.4375 283.25 363.027344 283.007812 C 363.613281 282.761719 364.1875 282.492188 364.746094 282.191406 C 365.308594 281.894531 365.851562 281.566406 366.378906 281.214844 C 366.90625 280.859375 367.417969 280.484375 367.910156 280.078125 C 368.398438 279.675781 368.871094 279.25 369.320312 278.800781 C 369.769531 278.351562 370.195312 277.882812 370.597656 277.390625 C 371 276.898438 371.378906 276.390625 371.730469 275.863281 C 372.085938 275.335938 372.410156 274.789062 372.710938 274.230469 C 373.007812 273.667969 373.28125 273.097656 373.523438 272.507812 C 373.765625 271.921875 373.980469 271.324219 374.164062 270.714844 C 374.347656 270.109375 374.503906 269.492188 374.628906 268.871094 C 374.75 268.246094 374.84375 267.621094 374.90625 266.988281 C 374.96875 266.355469 375 265.722656 375 265.085938 L 375 232.757812 L 0 232.757812 Z M 187.5 245.691406 C 188.347656 245.691406 189.191406 245.773438 190.023438 245.9375 C 190.855469 246.105469 191.664062 246.347656 192.449219 246.675781 C 193.234375 247 193.976562 247.398438 194.683594 247.867188 C 195.390625 248.339844 196.042969 248.875 196.644531 249.476562 C 197.242188 250.078125 197.78125 250.730469 198.25 251.4375 C 198.722656 252.140625 199.121094 252.886719 199.445312 253.671875 C 199.773438 254.457031 200.015625 255.265625 200.183594 256.097656 C 200.347656 256.929688 200.429688 257.773438 200.429688 258.621094 C 200.429688 259.46875 200.347656 260.3125 200.183594 261.144531 C 200.015625 261.976562 199.773438 262.785156 199.445312 263.570312 C 199.121094 264.355469 198.722656 265.097656 198.25 265.804688 C 197.78125 266.511719 197.242188 267.164062 196.644531 267.765625 C 196.042969 268.363281 195.390625 268.902344 194.683594 269.371094 C 193.976562 269.84375 193.234375 270.242188 192.449219 270.566406 C 191.664062 270.890625 190.855469 271.136719 190.023438 271.304688 C 189.191406 271.46875 188.347656 271.550781 187.5 271.550781 C 186.652344 271.550781 185.808594 271.46875 184.976562 271.304688 C 184.144531 271.136719 183.335938 270.890625 182.550781 270.566406 C 181.765625 270.242188 181.023438 269.84375 180.316406 269.371094 C 179.609375 268.902344 178.957031 268.363281 178.355469 267.765625 C 177.757812 267.164062 177.21875 266.511719 176.75 265.804688 C 176.277344 265.097656 175.878906 264.355469 175.554688 263.570312 C 175.226562 262.785156 174.984375 261.976562 174.816406 261.144531 C 174.652344 260.3125 174.570312 259.46875 174.570312 258.621094 C 174.570312 257.773438 174.652344 256.929688 174.816406 256.097656 C 174.984375 255.265625 175.226562 254.457031 175.554688 253.671875 C 175.878906 252.886719 176.277344 252.140625 176.75 251.4375 C 177.21875 250.730469 177.757812 250.078125 178.355469 249.476562 C 178.957031 248.875 179.609375 248.339844 180.316406 247.867188 C 181.023438 247.398438 181.765625 247 182.550781 246.675781 C 183.335938 246.347656 184.144531 246.105469 184.976562 245.9375 C 185.808594 245.773438 186.652344 245.691406 187.5 245.691406 Z M 187.5 245.691406 " fill-opacity="1" fill-rule="nonzero"/><path fill="#ffd66c" d="M 355.601562 0 L 116.378906 0 L 116.378906 155.171875 L 375 155.171875 L 375 19.398438 C 375 18.761719 374.96875 18.128906 374.90625 17.496094 C 374.84375 16.863281 374.75 16.234375 374.628906 15.613281 C 374.503906 14.988281 374.347656 14.375 374.164062 13.765625 C 373.980469 13.15625 373.765625 12.5625 373.523438 11.972656 C 373.28125 11.386719 373.007812 10.8125 372.710938 10.253906 C 372.410156 9.691406 372.085938 9.148438 371.730469 8.621094 C 371.378906 8.09375 371 7.582031 370.597656 7.089844 C 370.195312 6.601562 369.769531 6.128906 369.320312 5.679688 C 368.871094 5.230469 368.398438 4.804688 367.910156 4.402344 C 367.417969 4 366.90625 3.621094 366.378906 3.269531 C 365.851562 2.914062 365.308594 2.589844 364.746094 2.289062 C 364.1875 1.992188 363.613281 1.71875 363.027344 1.476562 C 362.4375 1.234375 361.84375 1.019531 361.234375 0.835938 C 360.625 0.652344 360.011719 0.496094 359.386719 0.371094 C 358.765625 0.25 358.136719 0.15625 357.503906 0.09375 C 356.871094 0.03125 356.238281 0 355.601562 0 Z M 342.671875 135.777344 L 161.636719 135.777344 L 161.636719 19.398438 L 342.671875 19.398438 Z M 342.671875 135.777344 " fill-opacity="1" fill-rule="nonzero"/><path fill="#ffd66c" d="M 116.378906 219.828125 L 375 219.828125 L 375 168.101562 L 116.378906 168.101562 Z M 129.308594 187.5 L 174.570312 187.5 L 174.570312 174.570312 L 187.5 174.570312 L 187.5 187.5 L 239.222656 187.5 L 239.222656 174.570312 L 252.15625 174.570312 L 252.15625 187.5 L 303.878906 187.5 L 303.878906 174.570312 L 316.808594 174.570312 L 316.808594 187.5 L 362.070312 187.5 L 362.070312 200.429688 L 316.808594 200.429688 L 316.808594 213.363281 L 303.878906 213.363281 L 303.878906 200.429688 L 252.15625 200.429688 L 252.15625 213.363281 L 239.222656 213.363281 L 239.222656 200.429688 L 187.5 200.429688 L 187.5 213.363281 L 174.570312 213.363281 L 174.570312 200.429688 L 129.308594 200.429688 Z M 129.308594 187.5 " fill-opacity="1" fill-rule="nonzero"/><path fill="#ffd66c" d="M 226.292969 51.722656 L 226.292969 109.914062 L 278.015625 77.585938 Z M 226.292969 51.722656 " fill-opacity="1" fill-rule="nonzero"/><g clip-path="url(#9f501d586f)"><path fill="#ffffff" d="M 6.027344 368.546875 L 0.347656 368.546875 C 0.253906 368.546875 0.175781 368.515625 0.105469 368.449219 C 0.0390625 368.382812 0.0078125 368.300781 0.0078125 368.207031 L 0.0078125 364.117188 C 0.0078125 364.023438 0.0390625 363.941406 0.105469 363.875 C 0.175781 363.808594 0.253906 363.777344 0.347656 363.777344 L 4.097656 363.777344 C 4.171875 363.777344 4.210938 363.8125 4.210938 363.890625 C 4.210938 363.964844 4.171875 364.003906 4.097656 364.003906 L 0.347656 364.003906 C 0.273438 364.003906 0.234375 364.039062 0.234375 364.117188 L 0.234375 368.207031 C 0.234375 368.28125 0.273438 368.320312 0.347656 368.320312 L 6.027344 368.320312 C 6.105469 368.320312 6.140625 368.28125 6.140625 368.207031 L 6.140625 365.367188 C 6.140625 365.289062 6.179688 365.253906 6.257812 365.253906 C 6.332031 365.253906 6.371094 365.289062 6.371094 365.367188 L 6.371094 368.207031 C 6.371094 368.300781 6.335938 368.382812 6.269531 368.449219 C 6.203125 368.515625 6.121094 368.546875 6.027344 368.546875 Z M 6.027344 368.546875 " fill-opacity="1" fill-rule="nonzero"/></g><g clip-path="url(#6d2d74ecfc)"><path fill="#ffffff" d="M 4.894531 369.683594 L 1.484375 369.683594 C 1.390625 369.683594 1.308594 369.648438 1.242188 369.582031 C 1.175781 369.515625 1.144531 369.4375 1.144531 369.34375 C 1.144531 369.25 1.175781 369.167969 1.242188 369.101562 C 1.308594 369.035156 1.390625 369 1.484375 369 L 4.894531 369 C 4.988281 369 5.066406 369.035156 5.132812 369.101562 C 5.199219 369.167969 5.234375 369.25 5.234375 369.34375 C 5.234375 369.4375 5.199219 369.515625 5.132812 369.582031 C 5.066406 369.648438 4.988281 369.683594 4.894531 369.683594 Z M 1.484375 369.230469 C 1.410156 369.230469 1.371094 369.265625 1.371094 369.34375 C 1.371094 369.417969 1.410156 369.457031 1.484375 369.457031 L 4.894531 369.457031 C 4.96875 369.457031 5.007812 369.417969 5.007812 369.34375 C 5.007812 369.265625 4.96875 369.230469 4.894531 369.230469 Z M 1.484375 369.230469 " fill-opacity="1" fill-rule="nonzero"/></g><g clip-path="url(#8d52573034)"><path fill="#ffffff" d="M 6.027344 368.546875 L 0.347656 368.546875 C 0.253906 368.546875 0.175781 368.515625 0.105469 368.449219 C 0.0390625 368.382812 0.0078125 368.300781 0.0078125 368.207031 L 0.0078125 367.636719 L 6.371094 367.636719 L 6.371094 368.207031 C 6.371094 368.300781 6.335938 368.382812 6.269531 368.449219 C 6.203125 368.515625 6.121094 368.546875 6.027344 368.546875 Z M 0.234375 367.867188 L 0.234375 368.207031 C 0.234375 368.28125 0.273438 368.320312 0.347656 368.320312 L 6.027344 368.320312 C 6.105469 368.320312 6.140625 368.28125 6.140625 368.207031 L 6.140625 367.867188 Z M 0.234375 367.867188 " fill-opacity="1" fill-rule="nonzero"/></g><g clip-path="url(#1c0b1489c2)"><path fill="#ffffff" d="M 4.269531 369.230469 L 2.136719 369.230469 L 2.4375 368.320312 L 3.964844 368.320312 Z M 2.453125 369 L 3.953125 369 L 3.800781 368.546875 L 2.601562 368.546875 Z M 2.453125 369 " fill-opacity="1" fill-rule="nonzero"/></g><path fill="#ffffff" d="M 2.394531 365.707031 L 0.804688 365.707031 C 0.726562 365.707031 0.6875 365.667969 0.6875 365.59375 C 0.6875 365.519531 0.726562 365.480469 0.804688 365.480469 L 2.394531 365.480469 C 2.46875 365.480469 2.507812 365.519531 2.507812 365.59375 C 2.507812 365.667969 2.46875 365.707031 2.394531 365.707031 Z M 2.394531 365.707031 " fill-opacity="1" fill-rule="nonzero"/><path fill="#ffffff" d="M 1.9375 366.503906 L 0.804688 366.503906 C 0.726562 366.503906 0.6875 366.464844 0.6875 366.386719 C 0.6875 366.3125 0.726562 366.273438 0.804688 366.273438 L 1.9375 366.273438 C 2.015625 366.273438 2.050781 366.3125 2.050781 366.386719 C 2.050781 366.464844 2.015625 366.503906 1.9375 366.503906 Z M 1.9375 366.503906 " fill-opacity="1" fill-rule="nonzero"/><path fill="#ffffff" d="M 1.484375 367.296875 L 0.804688 367.296875 C 0.726562 367.296875 0.6875 367.257812 0.6875 367.183594 C 0.6875 367.109375 0.726562 367.070312 0.804688 367.070312 L 1.484375 367.070312 C 1.558594 367.070312 1.597656 367.109375 1.597656 367.183594 C 1.597656 367.257812 1.558594 367.296875 1.484375 367.296875 Z M 1.484375 367.296875 " fill-opacity="1" fill-rule="nonzero"/><g clip-path="url(#dee6822fa1)"><path fill="#ffffff" d="M 4.300781 366.730469 C 4.269531 366.730469 4.242188 366.71875 4.21875 366.695312 L 3.097656 365.570312 C 3.042969 365.515625 3.042969 365.464844 3.097656 365.410156 L 4.703125 363.804688 C 4.757812 363.75 4.808594 363.75 4.863281 363.804688 L 5.988281 364.925781 C 6.042969 364.980469 6.042969 365.035156 5.988281 365.085938 L 4.382812 366.695312 C 4.359375 366.71875 4.332031 366.730469 4.300781 366.730469 Z M 3.335938 365.492188 L 4.300781 366.453125 L 5.746094 365.007812 L 4.777344 364.042969 Z M 3.335938 365.492188 " fill-opacity="1" fill-rule="nonzero"/></g><path fill="#ffffff" d="M 2.59375 367.308594 C 2.5625 367.308594 2.535156 367.296875 2.515625 367.277344 C 2.484375 367.242188 2.472656 367.207031 2.488281 367.164062 L 3.070312 365.457031 C 3.082031 365.417969 3.109375 365.394531 3.152344 365.382812 C 3.191406 365.375 3.226562 365.382812 3.257812 365.414062 L 4.382812 366.539062 C 4.410156 366.566406 4.421875 366.601562 4.414062 366.644531 C 4.402344 366.683594 4.378906 366.710938 4.339844 366.726562 L 2.632812 367.308594 C 2.621094 367.3125 2.609375 367.3125 2.59375 367.308594 Z M 3.226562 365.699219 L 2.777344 367.011719 L 4.097656 366.566406 Z M 3.226562 365.699219 " fill-opacity="1" fill-rule="nonzero"/><path fill="#ffffff" d="M 2.59375 367.308594 C 2.5625 367.308594 2.535156 367.296875 2.515625 367.277344 C 2.484375 367.242188 2.472656 367.207031 2.488281 367.164062 L 2.738281 366.417969 C 2.761719 366.359375 2.800781 366.335938 2.863281 366.34375 C 3.015625 366.363281 3.148438 366.425781 3.257812 366.539062 C 3.367188 366.648438 3.429688 366.777344 3.449219 366.933594 C 3.460938 366.992188 3.433594 367.035156 3.375 367.054688 L 2.632812 367.304688 C 2.621094 367.308594 2.605469 367.308594 2.59375 367.308594 Z M 2.921875 366.585938 L 2.777344 367.011719 L 3.203125 366.867188 C 3.15625 366.726562 3.0625 366.632812 2.921875 366.585938 Z M 2.921875 366.585938 " fill-opacity="1" fill-rule="nonzero"/><g clip-path="url(#f80a99a088)"><path fill="#ffffff" d="M 5.90625 365.167969 L 4.621094 363.890625 L 5.023438 363.488281 C 5.09375 363.421875 5.171875 363.390625 5.265625 363.390625 C 5.359375 363.390625 5.4375 363.421875 5.507812 363.488281 L 6.308594 364.289062 C 6.375 364.355469 6.410156 364.4375 6.410156 364.53125 C 6.410156 364.625 6.375 364.707031 6.308594 364.773438 Z M 4.945312 363.890625 L 5.90625 364.851562 L 6.148438 364.613281 C 6.203125 364.558594 6.203125 364.503906 6.148438 364.453125 L 5.347656 363.640625 C 5.292969 363.589844 5.242188 363.589844 5.1875 363.640625 Z M 4.945312 363.890625 " fill-opacity="1" fill-rule="nonzero"/></g><g clip-path="url(#8105959d9d)"><path fill="#ffffff" d="M 4.300781 366.730469 C 4.269531 366.730469 4.242188 366.71875 4.21875 366.695312 L 3.898438 366.375 C 3.84375 366.320312 3.84375 366.265625 3.898438 366.214844 L 5.507812 364.605469 C 5.558594 364.554688 5.613281 364.554688 5.667969 364.605469 L 5.988281 364.925781 C 6.042969 364.980469 6.042969 365.035156 5.988281 365.085938 L 4.382812 366.695312 C 4.359375 366.71875 4.332031 366.730469 4.300781 366.730469 Z M 4.140625 366.292969 L 4.300781 366.453125 L 5.746094 365.007812 L 5.585938 364.847656 Z M 4.140625 366.292969 " fill-opacity="1" fill-rule="nonzero"/></g><g clip-path="url(#09e5862654)"><path fill="#ffffff" d="M 3.496094 365.925781 C 3.464844 365.925781 3.4375 365.914062 3.417969 365.890625 L 3.097656 365.570312 C 3.042969 365.515625 3.042969 365.460938 3.097656 365.410156 L 4.703125 363.804688 C 4.757812 363.75 4.808594 363.75 4.863281 363.804688 L 5.183594 364.125 C 5.207031 364.144531 5.21875 364.171875 5.21875 364.203125 C 5.21875 364.234375 5.207031 364.261719 5.183594 364.285156 L 3.578125 365.890625 C 3.554688 365.914062 3.527344 365.925781 3.496094 365.925781 Z M 3.335938 365.488281 L 3.496094 365.648438 L 4.945312 364.203125 L 4.777344 364.042969 Z M 3.335938 365.488281 " fill-opacity="1" fill-rule="nonzero"/></g></svg>