<svg width="70" height="101" viewBox="0 0 70 101" fill="none" xmlns="http://www.w3.org/2000/svg">
<g clip-path="url(#clip0_28_109)">
<path d="M17.3754 100.601C26.9633 100.601 34.7448 93.092 34.7448 83.8402V67.0796H17.3754C7.78748 67.0796 0.00598145 74.5883 0.00598145 83.8402C0.00598145 93.092 7.78748 100.601 17.3754 100.601Z" fill="#0ACF83"/>
<path d="M0.00598145 50.3187C0.00598145 41.0668 7.78748 33.5581 17.3754 33.5581H34.7448V67.0793H17.3754C7.78748 67.0793 0.00598145 59.5705 0.00598145 50.3187Z" fill="#A259FF"/>
<path d="M0.00390625 16.7977C0.00390625 7.54585 7.7854 0.0371094 17.3733 0.0371094H34.7427V33.5583H17.3733C7.7854 33.5583 0.00390625 26.0495 0.00390625 16.7977Z" fill="#F24E1E"/>
<path d="M34.7457 0.0371094H52.1151C61.7031 0.0371094 69.4846 7.54585 69.4846 16.7977C69.4846 26.0495 61.7031 33.5583 52.1151 33.5583H34.7457V0.0371094Z" fill="#FF7262"/>
<path d="M69.4845 50.3187C69.4845 59.5705 61.7031 67.0793 52.1151 67.0793C42.5272 67.0793 34.7457 59.5705 34.7457 50.3187C34.7457 41.0668 42.5272 33.5581 52.1151 33.5581C61.7031 33.5581 69.4845 41.0668 69.4845 50.3187Z" fill="#1ABCFE"/>
</g>
<defs>
<clipPath id="clip0_28_109">
<rect width="69.4915" height="100.563" fill="white" transform="translate(0 0.0371094)"/>
</clipPath>
</defs>
</svg>
