<svg xmlns="http://www.w3.org/2000/svg" xmlns:xlink="http://www.w3.org/1999/xlink" width="500" zoomAndPan="magnify" viewBox="0 0 375 374.999991" height="500" preserveAspectRatio="xMidYMid meet" version="1.0"><defs><clipPath id="1a16c07010"><path d="M 122 118 L 262.5 118 L 262.5 241 L 122 241 Z M 122 118 " clip-rule="nonzero"/></clipPath><clipPath id="8a1c33055f"><path d="M 112.5 137 L 157 137 L 157 257.34375 L 112.5 257.34375 Z M 112.5 137 " clip-rule="nonzero"/></clipPath><clipPath id="534786fa26"><path d="M 143 217 L 262.5 217 L 262.5 257.34375 L 143 257.34375 Z M 143 217 " clip-rule="nonzero"/></clipPath></defs><path fill="#fdf151" d="M 155.085938 238.652344 L 124.546875 139.105469 L 230.058594 119.871094 L 260.597656 219.414062 Z M 155.085938 238.652344 " fill-opacity="1" fill-rule="nonzero"/><g clip-path="url(#1a16c07010)"><path fill="#0b122d" d="M 155.085938 240.445312 C 154.3125 240.445312 153.609375 239.941406 153.375 239.175781 L 122.835938 139.632812 C 122.6875 139.144531 122.753906 138.613281 123.019531 138.175781 C 123.285156 137.738281 123.722656 137.4375 124.226562 137.34375 L 229.738281 118.109375 C 230.632812 117.945312 231.503906 118.476562 231.769531 119.34375 L 262.308594 218.890625 C 262.460938 219.378906 262.394531 219.910156 262.128906 220.347656 C 261.863281 220.785156 261.421875 221.085938 260.917969 221.179688 L 155.40625 240.414062 C 155.300781 240.433594 155.191406 240.441406 155.085938 240.441406 Z M 126.851562 140.507812 L 156.332031 236.601562 L 258.296875 218.011719 L 228.816406 121.921875 Z M 126.851562 140.507812 " fill-opacity="1" fill-rule="nonzero"/></g><path fill="#0b122d" d="M 216.394531 201.042969 C 219.375 203.78125 222.492188 206.355469 227.160156 205.503906 C 231.082031 204.789062 232.578125 202.574219 231.796875 200.03125 C 230.863281 196.988281 228.402344 196.292969 223.542969 195.308594 L 220.886719 194.789062 C 213.222656 193.300781 207.632812 190.707031 205.414062 183.472656 C 203.371094 176.808594 207.222656 170.753906 215.671875 169.210938 C 221.691406 168.117188 226.617188 169.292969 231.3125 173.875 L 225.308594 179.660156 C 222.851562 177.222656 220.765625 176.46875 218.050781 176.964844 C 215.277344 177.46875 214.027344 179.441406 214.691406 181.597656 C 215.507812 184.261719 217.597656 185.019531 222.164062 185.929688 L 224.820312 186.449219 C 233.855469 188.214844 239.40625 190.691406 241.683594 198.113281 C 244.136719 206.109375 238.785156 211.710938 229.800781 213.351562 C 221.011719 214.953125 214.742188 211.699219 210.382812 207.054688 L 216.394531 201.039062 Z M 216.394531 201.042969 " fill-opacity="1" fill-rule="nonzero"/><path fill="#0b122d" d="M 225.457031 215.546875 C 219.179688 215.546875 213.582031 213.082031 209.082031 208.285156 C 208.417969 207.578125 208.4375 206.472656 209.121094 205.789062 L 215.128906 199.773438 C 215.804688 199.09375 216.898438 199.070312 217.605469 199.71875 C 220.539062 202.417969 223.085938 204.425781 226.839844 203.742188 C 228.410156 203.457031 229.527344 202.890625 229.976562 202.148438 C 230.242188 201.707031 230.277344 201.1875 230.085938 200.558594 C 229.484375 198.601562 228.078125 198.054688 223.1875 197.066406 L 220.542969 196.546875 C 213.371094 195.15625 206.363281 192.671875 203.703125 184 C 202.617188 180.453125 202.988281 176.898438 204.75 173.996094 C 206.78125 170.648438 210.546875 168.324219 215.351562 167.449219 C 222.214844 166.199219 227.683594 167.832031 232.5625 172.589844 C 232.910156 172.929688 233.105469 173.394531 233.105469 173.878906 C 233.101562 174.363281 232.90625 174.828125 232.554688 175.164062 L 226.550781 180.953125 C 225.851562 181.625 224.742188 181.621094 224.050781 180.9375 C 221.738281 178.644531 220.21875 178.390625 218.371094 178.726562 C 217.472656 178.890625 216.808594 179.257812 216.5 179.761719 C 216.28125 180.125 216.246094 180.566406 216.402344 181.070312 C 216.871094 182.601562 217.773438 183.230469 222.511719 184.171875 L 225.164062 184.691406 C 234.539062 186.523438 240.859375 189.320312 243.394531 197.585938 C 244.550781 201.347656 244.210938 204.894531 242.417969 207.847656 C 240.207031 211.492188 235.839844 214.074219 230.121094 215.113281 C 228.53125 215.40625 226.972656 215.550781 225.457031 215.550781 Z M 212.921875 207.050781 C 217.488281 211.234375 223.050781 212.757812 229.480469 211.585938 C 234.175781 210.730469 237.683594 208.742188 239.359375 205.984375 C 240.621094 203.902344 240.828125 201.429688 239.972656 198.640625 C 237.941406 192.019531 232.960938 189.867188 224.476562 188.210938 L 221.820312 187.691406 C 217.367188 186.800781 214.132812 185.882812 212.980469 182.125 C 212.523438 180.640625 212.6875 179.140625 213.441406 177.902344 C 214.285156 176.507812 215.808594 175.550781 217.730469 175.199219 C 220.550781 174.6875 222.878906 175.292969 225.265625 177.214844 L 228.683594 173.921875 C 225.015625 170.921875 221.121094 170.039062 215.992188 170.976562 C 212.207031 171.664062 209.300781 173.402344 207.808594 175.859375 C 206.566406 177.902344 206.332031 180.355469 207.125 182.949219 C 209.113281 189.429688 214.199219 191.664062 221.226562 193.027344 L 223.886719 193.550781 C 228.351562 194.453125 232.195312 195.234375 233.507812 199.503906 C 234.003906 201.125 233.839844 202.683594 233.035156 204.007812 C 232.335938 205.160156 230.804688 206.664062 227.480469 207.269531 C 222.558594 208.164062 219.003906 205.722656 216.457031 203.511719 Z M 212.921875 207.050781 " fill-opacity="1" fill-rule="nonzero"/><path fill="#0b122d" d="M 182.507812 207.457031 C 184.757812 209.695312 187.601562 211.210938 190.84375 210.621094 C 193.945312 210.054688 195.375 208.574219 193.996094 204.078125 L 185.015625 174.800781 L 194.78125 173.019531 L 204.199219 203.714844 C 207.054688 213.023438 202.632812 218.304688 194.273438 219.828125 C 186.71875 221.203125 179.785156 217.371094 176.191406 213.289062 Z M 182.507812 207.457031 " fill-opacity="1" fill-rule="nonzero"/><path fill="#0b122d" d="M 191.050781 221.914062 C 184.007812 221.914062 178.074219 218.136719 174.847656 214.476562 C 174.203125 213.746094 174.261719 212.632812 174.976562 211.972656 L 181.292969 206.140625 C 181.996094 205.492188 183.085938 205.511719 183.765625 206.1875 C 185.96875 208.375 188.242188 209.269531 190.523438 208.855469 C 191.613281 208.65625 192.292969 208.351562 192.535156 207.953125 C 192.726562 207.636719 192.953125 206.777344 192.285156 204.605469 L 183.304688 175.324219 C 183.152344 174.835938 183.21875 174.304688 183.484375 173.867188 C 183.75 173.429688 184.191406 173.128906 184.691406 173.035156 L 194.460938 171.253906 C 195.355469 171.09375 196.226562 171.625 196.492188 172.492188 L 205.910156 203.1875 C 207.386719 207.996094 207.144531 212.0625 205.191406 215.277344 C 203.234375 218.5 199.570312 220.683594 194.59375 221.589844 C 193.386719 221.8125 192.203125 221.914062 191.050781 221.914062 Z M 178.761719 213.355469 C 182.332031 216.625 188.039062 219.140625 193.953125 218.0625 C 197.894531 217.34375 200.722656 215.738281 202.132812 213.414062 C 203.53125 211.113281 203.648438 208.027344 202.488281 204.238281 L 193.539062 175.066406 L 187.316406 176.199219 L 195.707031 203.550781 C 196.554688 206.304688 196.515625 208.296875 195.59375 209.816406 C 194.515625 211.589844 192.550781 212.128906 191.164062 212.382812 C 188.191406 212.921875 185.234375 212.058594 182.527344 209.878906 L 178.761719 213.351562 Z M 178.761719 213.355469 " fill-opacity="1" fill-rule="nonzero"/><path fill="#fdf151" d="M 124.546875 139.105469 L 114.351562 155.855469 L 144.886719 255.398438 L 155.085938 238.652344 Z M 124.546875 139.105469 " fill-opacity="1" fill-rule="nonzero"/><g clip-path="url(#8a1c33055f)"><path fill="#0b122d" d="M 144.886719 257.191406 C 144.8125 257.191406 144.738281 257.183594 144.664062 257.175781 C 143.964844 257.089844 143.382812 256.597656 143.175781 255.921875 L 112.636719 156.378906 C 112.488281 155.890625 112.554688 155.359375 112.820312 154.917969 L 123.019531 138.171875 C 123.386719 137.570312 124.066406 137.238281 124.769531 137.328125 C 125.46875 137.414062 126.050781 137.90625 126.257812 138.578125 L 156.796875 238.125 C 156.949219 238.613281 156.882812 239.144531 156.613281 239.582031 L 146.414062 256.328125 C 146.089844 256.867188 145.507812 257.1875 144.886719 257.1875 Z M 116.296875 156.097656 L 145.429688 251.0625 L 153.140625 238.40625 L 124.003906 143.441406 Z M 116.296875 156.097656 " fill-opacity="1" fill-rule="nonzero"/></g><path fill="#fdf151" d="M 260.597656 219.414062 L 250.398438 236.164062 L 144.886719 255.398438 L 155.085938 238.652344 Z M 260.597656 219.414062 " fill-opacity="1" fill-rule="nonzero"/><g clip-path="url(#534786fa26)"><path fill="#0b122d" d="M 144.886719 257.191406 C 144.304688 257.191406 143.75 256.902344 143.414062 256.410156 C 143.011719 255.828125 142.992188 255.066406 143.359375 254.464844 L 153.558594 237.71875 C 153.824219 237.28125 154.265625 236.980469 154.765625 236.886719 L 260.277344 217.652344 C 260.972656 217.523438 261.675781 217.820312 262.074219 218.398438 C 262.472656 218.984375 262.492188 219.746094 262.125 220.347656 L 251.929688 237.09375 C 251.660156 237.53125 251.222656 237.832031 250.71875 237.925781 L 145.207031 257.160156 C 145.101562 257.179688 144.996094 257.1875 144.886719 257.1875 Z M 156.195312 240.269531 L 148.496094 252.917969 L 249.289062 234.542969 L 256.992188 221.894531 Z M 156.195312 240.269531 " fill-opacity="1" fill-rule="nonzero"/></g><path fill="#ffe577" d="M 327.503906 43.902344 C 365.457031 84.730469 368.933594 292.257812 296.894531 331.429688 C 224.855469 370.597656 21.332031 372.269531 19.527344 256.429688 C 17.722656 140.589844 6.019531 40.574219 114.082031 31.402344 C 222.148438 22.230469 288.785156 2.226562 327.503906 43.902344 Z M 327.503906 43.902344 " fill-opacity="1" fill-rule="nonzero"/><path fill="#000000" d="M 342.273438 349.878906 L 37.082031 349.878906 C 33.417969 349.878906 30.445312 346.910156 30.445312 343.253906 L 30.445312 38.375 C 30.445312 34.71875 33.417969 31.746094 37.082031 31.746094 L 342.273438 31.746094 C 345.9375 31.746094 348.910156 34.71875 348.910156 38.375 L 348.910156 343.253906 C 348.910156 346.910156 345.9375 349.878906 342.273438 349.878906 Z M 43.714844 336.625 L 335.640625 336.625 L 335.640625 45.003906 L 43.714844 45.003906 Z M 160.3125 326.390625 C 149.390625 326.390625 139.28125 323.78125 130.734375 318.675781 C 122.707031 313.851562 115.992188 306.230469 111.335938 296.605469 C 109.851562 293.542969 110.925781 289.859375 113.832031 288.070312 L 137.039062 273.78125 C 138.085938 273.144531 139.28125 272.800781 140.515625 272.800781 C 144.496094 272.800781 146.246094 275.808594 147.296875 277.609375 C 150.441406 282.875 152.191406 285.113281 155.574219 286.808594 C 155.640625 286.652344 157.433594 287.246094 159.664062 287.246094 C 162.222656 287.246094 165.277344 286.613281 166.617188 283.8125 C 167.984375 280.925781 167.863281 269.699219 167.785156 261.492188 L 167.71875 252.238281 L 167.835938 178.5 C 167.835938 174.839844 170.808594 171.871094 174.472656 171.871094 L 203.054688 171.871094 C 204.898438 171.871094 206.648438 172.640625 207.910156 173.992188 C 209.171875 175.34375 209.808594 177.148438 209.660156 178.976562 L 209.660156 205.488281 C 209.699219 222.945312 209.726562 240.351562 209.636719 257.742188 L 209.714844 264.582031 C 209.941406 278.566406 210.152344 291.769531 203.769531 303.394531 C 198.914062 313.292969 189.28125 320.890625 176.753906 324.496094 C 171.140625 325.769531 165.632812 326.390625 160.3125 326.390625 Z M 126.199219 296.035156 C 129.34375 300.859375 133.203125 304.703125 137.542969 307.316406 C 147.164062 313.042969 160.246094 314.648438 173.460938 311.675781 C 179.355469 309.96875 187.726562 305.976562 191.988281 297.308594 C 196.816406 288.480469 196.644531 277.519531 196.433594 264.804688 L 196.351562 257.742188 C 196.457031 240.324219 196.417969 222.945312 196.378906 205.527344 L 196.351562 185.140625 L 181.066406 185.140625 L 180.960938 252.253906 L 181.027344 261.371094 C 181.1875 276.84375 181.132812 285.125 178.304688 290.019531 C 173.277344 300.542969 160.75 302.265625 150.667969 299.125 C 144.441406 296.117188 141.058594 292.445312 138.40625 288.519531 Z M 140.503906 280.128906 L 135.355469 283.496094 Z M 140.808594 279.929688 L 140.898438 279.863281 Z M 270.011719 325.050781 C 252.148438 325.050781 234.34375 318.847656 223.660156 308.070312 L 220.847656 304.878906 C 217.476562 301.085938 214.558594 297.8125 211.996094 291.964844 C 210.628906 288.863281 211.835938 285.246094 214.769531 283.5625 L 238.042969 270.214844 C 241.109375 268.476562 244.957031 269.390625 246.894531 272.308594 C 252.824219 281.28125 257.246094 284.714844 265.113281 286.453125 C 271.8125 287.246094 278.328125 285.960938 281.011719 283.058594 C 281.515625 282.503906 283.039062 280.859375 282.21875 276.5625 C 280.996094 272.679688 272.332031 269.035156 263.972656 265.523438 C 255.851562 262.113281 246.65625 258.246094 238.722656 252.320312 C 228.902344 245.71875 222.132812 234.199219 220.449219 220.917969 C 218.777344 207.726562 222.425781 194.949219 230.492188 185.828125 C 236.015625 179.015625 245.234375 173.542969 255.640625 171.011719 L 265.339844 169.75 C 284.300781 169.273438 297.425781 174.152344 307.152344 185.046875 C 309.804688 187.621094 311.902344 190.601562 315.246094 195.796875 C 316.199219 197.28125 316.519531 199.113281 316.132812 200.835938 C 315.75 202.558594 314.675781 204.070312 313.160156 204.996094 C 304.046875 210.671875 304.046875 210.671875 290.960938 219.207031 C 289.34375 220.253906 287.367188 220.558594 285.523438 220.027344 C 283.675781 219.5 282.136719 218.214844 281.328125 216.476562 C 279.429688 212.445312 276.457031 209.625 272.96875 208.550781 C 270.050781 207.675781 266.558594 207.941406 264.34375 209.210938 C 262.738281 210.140625 262.300781 211.308594 262.113281 212.101562 C 261.824219 213.148438 261.570312 213.945312 262.644531 217.789062 C 263.746094 220.148438 270.023438 222.839844 276.074219 225.449219 C 278.023438 226.285156 279.988281 227.132812 281.914062 228.035156 C 307.90625 238.558594 320.9375 251.390625 323.828125 269.484375 C 323.976562 270.347656 323.9375 271.207031 323.75 272.015625 C 324.890625 281.839844 323.257812 288.996094 322.089844 292.589844 C 317.699219 307.59375 305.464844 318.386719 287.671875 322.890625 C 281.953125 324.363281 275.96875 325.050781 270.011719 325.050781 Z M 227.109375 291.769531 C 228.132812 293.132812 229.3125 294.445312 230.746094 296.074219 L 233.398438 299.097656 C 244.054688 309.835938 266.109375 314.714844 284.394531 310.074219 C 291.957031 308.164062 305.253906 302.847656 309.367188 288.796875 C 310.1875 286.253906 311.742188 279.957031 310.136719 270.851562 C 310.015625 270.121094 310.003906 269.40625 310.121094 268.703125 C 307.933594 260.0625 301.21875 250.183594 276.589844 240.203125 C 274.46875 239.222656 272.625 238.425781 270.804688 237.644531 C 262.394531 234.027344 253.675781 230.277344 250.160156 222.230469 C 248.554688 216.6875 248.007812 212.949219 249.296875 208.707031 C 250.332031 204.253906 253.265625 200.316406 257.683594 197.757812 C 263.097656 194.605469 270.234375 193.890625 276.816406 195.878906 C 281.714844 197.386719 285.984375 200.34375 289.316406 204.441406 C 294.652344 200.96875 296.960938 199.46875 300.289062 197.386719 C 299.296875 196.050781 298.460938 195.109375 297.53125 194.195312 C 290.085938 185.894531 280.902344 182.582031 266.292969 182.964844 L 258.015625 184.039062 C 251.234375 185.738281 244.453125 189.660156 240.59375 194.40625 C 234.871094 200.875 232.390625 209.863281 233.585938 219.261719 C 234.78125 228.617188 239.570312 236.941406 246.378906 241.542969 C 253.277344 246.671875 261.320312 250.066406 269.09375 253.328125 C 281.050781 258.351562 292.355469 263.109375 295.074219 273.34375 C 295.101562 273.460938 295.128906 273.582031 295.15625 273.699219 C 297.039062 282.898438 293.789062 288.773438 290.738281 292.074219 C 284.992188 298.277344 274.8125 300.992188 262.84375 299.523438 C 251.726562 297.082031 245.039062 291.886719 239.425781 284.714844 Z M 227.109375 291.769531 " fill-opacity="1" fill-rule="nonzero"/></svg>