<svg width="85" height="114" viewBox="0 0 85 114" fill="none" xmlns="http://www.w3.org/2000/svg">
<path d="M27.7672 88.0016C27.7672 88.0016 23.4205 90.6516 30.786 91.4081C39.661 92.5407 44.3797 92.3505 54.2019 90.4614C54.2019 90.4614 56.8445 92.1646 60.4299 93.4874C38.3376 102.937 10.3934 92.9168 27.7672 88.0016ZM24.9343 75.7159C24.9343 75.7159 20.2113 79.3082 27.5769 80.0647C37.2087 81.0115 44.7603 81.1974 57.7873 78.5517C57.7873 78.5517 59.4871 80.4408 62.32 81.3876C35.695 89.3288 5.86079 82.1441 24.9343 75.7159ZM77.0468 97.2656C77.0468 97.2656 80.2603 99.9113 73.4613 101.991C60.8105 105.769 20.4016 106.906 9.0743 101.991C5.10823 100.287 12.6598 97.8319 15.1164 97.4515C17.5687 96.8852 18.8922 96.8852 18.8922 96.8852C14.5498 93.8635 -9.99917 103.123 6.42737 105.769C51.5549 113.144 88.7547 102.557 77.0468 97.2656ZM29.8432 62.8595C29.8432 62.8595 9.2646 67.7747 22.4819 69.4779C28.1434 70.2344 39.2848 70.0442 49.6692 69.2877C58.1679 68.5312 66.6623 67.0182 66.6623 67.0182C66.6623 67.0182 63.6434 68.341 61.5674 69.6638C40.6082 75.1453 0.389599 72.6899 11.9072 67.0182C21.7251 62.2932 29.8432 62.8595 29.8432 62.8595ZM66.6623 83.4669C87.8118 72.4996 77.994 61.9171 71.195 63.24C69.4952 63.6161 68.7383 63.9965 68.7383 63.9965C68.7383 63.9965 69.3049 62.8595 70.6284 62.4834C84.036 57.7585 94.6065 76.6583 66.286 84.0332C66.286 84.0332 66.4763 83.843 66.6623 83.4626V83.4669ZM31.9192 113.33C52.3118 114.652 83.4651 112.573 84.2263 102.933C84.2263 102.933 82.7126 106.716 67.4192 109.551C50.0498 112.763 28.524 112.387 15.8776 110.308C15.8776 110.308 18.5202 112.573 31.9235 113.33H31.9192Z" fill="#4E7896"/>
<path d="M53.8213 0.484192C53.8213 0.484192 65.5292 12.3895 42.6799 30.3469C24.3677 44.9022 38.5279 53.2195 42.6799 62.6737C31.9192 53.0336 24.1774 44.5261 29.4626 36.5849C37.2088 24.8654 58.5442 19.1981 53.8256 0.484192H53.8213ZM47.7835 54.7325C53.259 60.9704 46.2741 66.6421 46.2741 66.6421C46.2741 66.6421 60.244 59.4617 53.8256 50.5782C47.9738 42.0707 43.4412 37.912 67.9858 23.7372C67.9858 23.7372 29.2809 33.3773 47.7835 54.7368V54.7325Z" fill="#F58219"/>
</svg>
