<svg width="103" height="102" viewBox="0 0 103 102" fill="none" xmlns="http://www.w3.org/2000/svg">
<path d="M94.8556 78.3176C89.2524 78.1786 84.9099 78.7364 81.2677 80.2689C80.2171 80.6868 78.536 80.6872 78.3958 82.0108C78.9565 82.5686 79.0264 83.4743 79.5167 84.2405C80.3577 85.6336 81.828 87.5154 83.1589 88.4911C84.6296 89.6057 86.1006 90.7204 87.6412 91.696C90.3729 93.3684 93.4548 94.3436 96.1162 96.016C97.6576 96.9908 99.1977 98.2457 100.739 99.2909C101.509 99.8478 101.999 100.754 102.98 101.102V100.893C102.49 100.266 102.35 99.3604 101.86 98.6636C101.16 97.9669 100.459 97.3396 99.7584 96.6428C97.7271 93.9257 95.2058 91.5566 92.4741 89.6057C90.2332 88.0727 85.33 85.9824 84.4195 83.4043C84.4195 83.4043 84.3492 83.3348 84.2794 83.2653C85.8203 83.1259 87.6412 82.5686 89.1123 82.1502C91.4938 81.523 93.6649 81.6624 96.1162 81.0356C97.2367 80.7567 98.3576 80.4083 99.4781 80.0599V79.4331C98.2179 78.1786 97.307 76.5066 95.9761 75.322C92.4042 72.2557 88.4817 69.2601 84.4195 66.7519C82.248 65.3584 79.4464 64.4522 77.1353 63.2681C76.2951 62.8493 74.8939 62.6408 74.404 61.944C73.1429 60.4111 72.4425 58.3907 71.5321 56.5789C69.5016 52.7462 67.5397 48.4966 65.7887 44.4554C64.5286 41.7379 63.7579 39.0203 62.2169 36.5122C55.0029 24.6672 47.1584 17.4906 35.1115 10.453C32.5199 8.98997 29.4385 8.36271 26.1465 7.59644C24.396 7.5265 22.6445 7.3875 20.8935 7.31756C19.7731 6.82973 18.6522 5.50615 17.6714 4.87889C13.68 2.37027 3.3836 -3.06397 0.441855 4.11262C-1.44931 8.6416 3.24344 13.1006 4.85425 15.4003C6.04545 17.0027 7.58597 18.8142 8.42653 20.626C8.9169 21.8097 9.05662 23.0647 9.54699 24.3188C10.6679 27.3838 11.718 30.7986 13.1891 33.6556C13.9598 35.1186 14.8 36.6516 15.7807 37.9752C16.3409 38.7415 17.3212 39.0903 17.5317 40.3444C16.5514 41.7379 16.4811 43.8282 15.9204 45.5701C13.3992 53.4434 14.3799 63.1982 17.9517 68.9812C19.0722 70.7227 21.734 74.5558 25.3059 73.0923C28.4577 71.8382 27.7573 67.8665 28.6677 64.3827C28.8782 63.5461 28.738 62.9892 29.1581 62.4319C29.1585 62.5014 29.1581 62.5713 29.1581 62.5713C30.1388 64.5222 31.1191 66.4035 32.0295 68.3543C34.201 71.7682 37.9829 75.322 41.1347 77.6912C42.8163 78.9448 44.1468 81.1051 46.2479 81.8718V81.6624H46.1078C45.6873 81.0351 45.0572 80.7567 44.4969 80.2689C43.2363 79.0148 41.8351 77.4818 40.8548 76.0883C37.9135 72.1861 35.3215 67.8666 33.0103 63.4071C31.8898 61.2473 30.9091 58.8781 29.9987 56.7183C29.5782 55.8817 29.5782 54.628 28.8778 54.2102C27.8272 55.7427 26.2867 57.0667 25.5159 58.9481C24.1859 61.9441 24.0453 65.6368 23.5549 69.469C23.275 69.539 23.4148 69.469 23.2746 69.6085C21.0337 69.0507 20.263 66.7519 19.4224 64.8006C17.3212 59.8538 16.971 51.9105 18.7923 46.1974C19.2827 44.7339 21.3839 40.1354 20.5433 38.7419C20.1232 37.4179 18.722 36.6516 17.9517 35.6065C17.0413 34.2824 16.0606 32.6105 15.4305 31.147C13.7494 27.2453 12.9088 22.9253 11.088 19.0231C10.2474 17.2113 8.77673 15.3304 7.58597 13.6584C6.25549 11.777 4.78438 10.453 3.73378 8.22326C3.38402 7.45699 2.89321 6.20291 3.45344 5.3667C3.59361 4.80938 3.8735 4.60044 4.43417 4.46099C5.3446 3.69429 7.93615 4.66993 8.84656 5.08782C11.4381 6.13252 13.6092 7.10861 15.7807 8.57164C16.761 9.2684 17.8115 10.5924 19.0722 10.9408H20.5433C22.7846 11.4282 25.3059 11.0803 27.4071 11.7071C31.1195 12.8912 34.4809 14.6336 37.493 16.5149C46.6684 22.298 54.2322 30.5201 59.3454 40.3444C60.186 41.9464 60.5358 43.4103 61.3065 45.0823C62.7776 48.4966 64.5984 51.9804 66.0691 55.3248C67.5397 58.5992 68.9405 61.9441 71.0417 64.6616C72.0927 66.1242 76.2947 66.8909 78.1858 67.6576C79.5866 68.2845 81.7581 68.8422 83.0187 69.6085C85.3998 71.0711 87.7813 72.7439 90.0227 74.3464C91.1436 75.1822 94.6451 76.9245 94.8556 78.3176L94.8556 78.3176Z" fill="#00546B"/>
</svg>
