<svg xmlns="http://www.w3.org/2000/svg" xmlns:xlink="http://www.w3.org/1999/xlink" width="500" zoomAndPan="magnify" viewBox="0 0 375 374.999991" height="500" preserveAspectRatio="xMidYMid meet" version="1.0"><defs><clipPath id="2ac8ba24ad"><path d="M 0 363.355469 L 6.75 363.355469 L 6.75 369 L 0 369 Z M 0 363.355469 " clip-rule="nonzero"/></clipPath><clipPath id="ea05cc5223"><path d="M 1 369 L 6 369 L 6 369.355469 L 1 369.355469 Z M 1 369 " clip-rule="nonzero"/></clipPath><clipPath id="60aabfe524"><path d="M 0 367 L 6.75 367 L 6.75 369 L 0 369 Z M 0 367 " clip-rule="nonzero"/></clipPath><clipPath id="0a3079256f"><path d="M 2 368 L 5 368 L 5 369.355469 L 2 369.355469 Z M 2 368 " clip-rule="nonzero"/></clipPath><clipPath id="cec4debf3a"><path d="M 3 363.355469 L 6.75 363.355469 L 6.75 367 L 3 367 Z M 3 363.355469 " clip-rule="nonzero"/></clipPath><clipPath id="3c5998a7ef"><path d="M 4 363.355469 L 6.75 363.355469 L 6.75 366 L 4 366 Z M 4 363.355469 " clip-rule="nonzero"/></clipPath><clipPath id="a26c2dfd45"><path d="M 3 364 L 6.75 364 L 6.75 367 L 3 367 Z M 3 364 " clip-rule="nonzero"/></clipPath><clipPath id="a299f389cf"><path d="M 3 363.355469 L 6 363.355469 L 6 366 L 3 366 Z M 3 363.355469 " clip-rule="nonzero"/></clipPath><clipPath id="b27d17430d"><path d="M 306 172 L 363 172 L 363 236.851562 L 306 236.851562 Z M 306 172 " clip-rule="nonzero"/></clipPath><clipPath id="858d46210e"><path d="M 12 137.851562 L 289 137.851562 L 289 236.851562 L 12 236.851562 Z M 12 137.851562 " clip-rule="nonzero"/></clipPath><clipPath id="0cac4f5b29"><path d="M 85 173 L 267 173 L 267 236.851562 L 85 236.851562 Z M 85 173 " clip-rule="nonzero"/></clipPath></defs><g clip-path="url(#2ac8ba24ad)"><path fill="#000000" d="M 6.027344 368.546875 L 0.347656 368.546875 C 0.253906 368.546875 0.175781 368.515625 0.105469 368.449219 C 0.0390625 368.382812 0.0078125 368.300781 0.0078125 368.207031 L 0.0078125 364.117188 C 0.0078125 364.023438 0.0390625 363.941406 0.105469 363.875 C 0.175781 363.808594 0.253906 363.777344 0.347656 363.777344 L 4.097656 363.777344 C 4.171875 363.777344 4.210938 363.8125 4.210938 363.890625 C 4.210938 363.964844 4.171875 364.003906 4.097656 364.003906 L 0.347656 364.003906 C 0.273438 364.003906 0.234375 364.039062 0.234375 364.117188 L 0.234375 368.207031 C 0.234375 368.28125 0.273438 368.320312 0.347656 368.320312 L 6.027344 368.320312 C 6.105469 368.320312 6.140625 368.28125 6.140625 368.207031 L 6.140625 365.367188 C 6.140625 365.289062 6.179688 365.253906 6.257812 365.253906 C 6.332031 365.253906 6.371094 365.289062 6.371094 365.367188 L 6.371094 368.207031 C 6.371094 368.300781 6.335938 368.382812 6.269531 368.449219 C 6.203125 368.515625 6.121094 368.546875 6.027344 368.546875 Z M 6.027344 368.546875 " fill-opacity="1" fill-rule="nonzero"/></g><g clip-path="url(#ea05cc5223)"><path fill="#000000" d="M 4.894531 369.683594 L 1.484375 369.683594 C 1.390625 369.683594 1.308594 369.648438 1.242188 369.582031 C 1.175781 369.515625 1.144531 369.4375 1.144531 369.34375 C 1.144531 369.25 1.175781 369.167969 1.242188 369.101562 C 1.308594 369.035156 1.390625 369 1.484375 369 L 4.894531 369 C 4.988281 369 5.066406 369.035156 5.132812 369.101562 C 5.199219 369.167969 5.234375 369.25 5.234375 369.34375 C 5.234375 369.4375 5.199219 369.515625 5.132812 369.582031 C 5.066406 369.648438 4.988281 369.683594 4.894531 369.683594 Z M 1.484375 369.230469 C 1.410156 369.230469 1.371094 369.265625 1.371094 369.34375 C 1.371094 369.417969 1.410156 369.457031 1.484375 369.457031 L 4.894531 369.457031 C 4.96875 369.457031 5.007812 369.417969 5.007812 369.34375 C 5.007812 369.265625 4.96875 369.230469 4.894531 369.230469 Z M 1.484375 369.230469 " fill-opacity="1" fill-rule="nonzero"/></g><g clip-path="url(#60aabfe524)"><path fill="#000000" d="M 6.027344 368.546875 L 0.347656 368.546875 C 0.253906 368.546875 0.175781 368.515625 0.105469 368.449219 C 0.0390625 368.382812 0.0078125 368.300781 0.0078125 368.207031 L 0.0078125 367.636719 L 6.371094 367.636719 L 6.371094 368.207031 C 6.371094 368.300781 6.335938 368.382812 6.269531 368.449219 C 6.203125 368.515625 6.121094 368.546875 6.027344 368.546875 Z M 0.234375 367.867188 L 0.234375 368.207031 C 0.234375 368.28125 0.273438 368.320312 0.347656 368.320312 L 6.027344 368.320312 C 6.105469 368.320312 6.140625 368.28125 6.140625 368.207031 L 6.140625 367.867188 Z M 0.234375 367.867188 " fill-opacity="1" fill-rule="nonzero"/></g><g clip-path="url(#0a3079256f)"><path fill="#000000" d="M 4.269531 369.230469 L 2.136719 369.230469 L 2.4375 368.320312 L 3.964844 368.320312 Z M 2.453125 369 L 3.953125 369 L 3.800781 368.546875 L 2.601562 368.546875 Z M 2.453125 369 " fill-opacity="1" fill-rule="nonzero"/></g><path fill="#000000" d="M 2.394531 365.707031 L 0.804688 365.707031 C 0.726562 365.707031 0.6875 365.667969 0.6875 365.59375 C 0.6875 365.519531 0.726562 365.480469 0.804688 365.480469 L 2.394531 365.480469 C 2.46875 365.480469 2.507812 365.519531 2.507812 365.59375 C 2.507812 365.667969 2.46875 365.707031 2.394531 365.707031 Z M 2.394531 365.707031 " fill-opacity="1" fill-rule="nonzero"/><path fill="#000000" d="M 1.9375 366.503906 L 0.804688 366.503906 C 0.726562 366.503906 0.6875 366.464844 0.6875 366.386719 C 0.6875 366.3125 0.726562 366.273438 0.804688 366.273438 L 1.9375 366.273438 C 2.015625 366.273438 2.050781 366.3125 2.050781 366.386719 C 2.050781 366.464844 2.015625 366.503906 1.9375 366.503906 Z M 1.9375 366.503906 " fill-opacity="1" fill-rule="nonzero"/><path fill="#000000" d="M 1.484375 367.296875 L 0.804688 367.296875 C 0.726562 367.296875 0.6875 367.257812 0.6875 367.183594 C 0.6875 367.109375 0.726562 367.070312 0.804688 367.070312 L 1.484375 367.070312 C 1.558594 367.070312 1.597656 367.109375 1.597656 367.183594 C 1.597656 367.257812 1.558594 367.296875 1.484375 367.296875 Z M 1.484375 367.296875 " fill-opacity="1" fill-rule="nonzero"/><g clip-path="url(#cec4debf3a)"><path fill="#000000" d="M 4.300781 366.730469 C 4.269531 366.730469 4.242188 366.71875 4.21875 366.695312 L 3.097656 365.570312 C 3.042969 365.515625 3.042969 365.464844 3.097656 365.410156 L 4.703125 363.804688 C 4.757812 363.75 4.808594 363.75 4.863281 363.804688 L 5.988281 364.925781 C 6.042969 364.980469 6.042969 365.035156 5.988281 365.085938 L 4.382812 366.695312 C 4.359375 366.71875 4.332031 366.730469 4.300781 366.730469 Z M 3.335938 365.492188 L 4.300781 366.453125 L 5.746094 365.007812 L 4.777344 364.042969 Z M 3.335938 365.492188 " fill-opacity="1" fill-rule="nonzero"/></g><path fill="#000000" d="M 2.59375 367.308594 C 2.5625 367.308594 2.535156 367.296875 2.515625 367.277344 C 2.484375 367.242188 2.472656 367.207031 2.488281 367.164062 L 3.070312 365.457031 C 3.082031 365.417969 3.109375 365.394531 3.152344 365.382812 C 3.191406 365.375 3.226562 365.382812 3.257812 365.414062 L 4.382812 366.539062 C 4.410156 366.566406 4.421875 366.601562 4.414062 366.644531 C 4.402344 366.683594 4.378906 366.710938 4.339844 366.726562 L 2.632812 367.308594 C 2.621094 367.3125 2.609375 367.3125 2.59375 367.308594 Z M 3.226562 365.699219 L 2.777344 367.011719 L 4.097656 366.566406 Z M 3.226562 365.699219 " fill-opacity="1" fill-rule="nonzero"/><path fill="#000000" d="M 2.59375 367.308594 C 2.5625 367.308594 2.535156 367.296875 2.515625 367.277344 C 2.484375 367.242188 2.472656 367.207031 2.488281 367.164062 L 2.738281 366.417969 C 2.761719 366.359375 2.800781 366.335938 2.863281 366.34375 C 3.015625 366.363281 3.148438 366.425781 3.257812 366.539062 C 3.367188 366.648438 3.429688 366.777344 3.449219 366.933594 C 3.460938 366.992188 3.433594 367.035156 3.375 367.054688 L 2.632812 367.304688 C 2.621094 367.308594 2.605469 367.308594 2.59375 367.308594 Z M 2.921875 366.585938 L 2.777344 367.011719 L 3.203125 366.867188 C 3.15625 366.726562 3.0625 366.632812 2.921875 366.585938 Z M 2.921875 366.585938 " fill-opacity="1" fill-rule="nonzero"/><g clip-path="url(#3c5998a7ef)"><path fill="#000000" d="M 5.90625 365.167969 L 4.621094 363.890625 L 5.023438 363.488281 C 5.09375 363.421875 5.171875 363.390625 5.265625 363.390625 C 5.359375 363.390625 5.4375 363.421875 5.507812 363.488281 L 6.308594 364.289062 C 6.375 364.355469 6.410156 364.4375 6.410156 364.53125 C 6.410156 364.625 6.375 364.707031 6.308594 364.773438 Z M 4.945312 363.890625 L 5.90625 364.851562 L 6.148438 364.613281 C 6.203125 364.558594 6.203125 364.503906 6.148438 364.453125 L 5.347656 363.640625 C 5.292969 363.589844 5.242188 363.589844 5.1875 363.640625 Z M 4.945312 363.890625 " fill-opacity="1" fill-rule="nonzero"/></g><g clip-path="url(#a26c2dfd45)"><path fill="#000000" d="M 4.300781 366.730469 C 4.269531 366.730469 4.242188 366.71875 4.21875 366.695312 L 3.898438 366.375 C 3.84375 366.320312 3.84375 366.265625 3.898438 366.214844 L 5.507812 364.605469 C 5.558594 364.554688 5.613281 364.554688 5.667969 364.605469 L 5.988281 364.925781 C 6.042969 364.980469 6.042969 365.035156 5.988281 365.085938 L 4.382812 366.695312 C 4.359375 366.71875 4.332031 366.730469 4.300781 366.730469 Z M 4.140625 366.292969 L 4.300781 366.453125 L 5.746094 365.007812 L 5.585938 364.847656 Z M 4.140625 366.292969 " fill-opacity="1" fill-rule="nonzero"/></g><g clip-path="url(#a299f389cf)"><path fill="#000000" d="M 3.496094 365.925781 C 3.464844 365.925781 3.4375 365.914062 3.417969 365.890625 L 3.097656 365.570312 C 3.042969 365.515625 3.042969 365.460938 3.097656 365.410156 L 4.703125 363.804688 C 4.757812 363.75 4.808594 363.75 4.863281 363.804688 L 5.183594 364.125 C 5.207031 364.144531 5.21875 364.171875 5.21875 364.203125 C 5.21875 364.234375 5.207031 364.261719 5.183594 364.285156 L 3.578125 365.890625 C 3.554688 365.914062 3.527344 365.925781 3.496094 365.925781 Z M 3.335938 365.488281 L 3.496094 365.648438 L 4.945312 364.203125 L 4.777344 364.042969 Z M 3.335938 365.488281 " fill-opacity="1" fill-rule="nonzero"/></g><g clip-path="url(#b27d17430d)"><path fill="#83cd29" d="M 334.832031 172.894531 C 333.976562 172.894531 333.148438 173.070312 332.410156 173.484375 L 309.148438 186.875 C 307.644531 187.738281 306.730469 189.371094 306.730469 191.109375 L 306.730469 217.839844 C 306.730469 219.574219 307.644531 221.207031 309.148438 222.074219 L 315.222656 225.5625 C 318.175781 227.011719 319.265625 226.988281 320.609375 226.988281 C 324.976562 226.988281 327.472656 224.347656 327.472656 219.753906 L 327.472656 193.378906 C 327.472656 193.003906 327.148438 192.738281 326.78125 192.738281 L 323.867188 192.738281 C 323.496094 192.738281 323.175781 193.011719 323.175781 193.378906 L 323.175781 219.765625 C 323.175781 221.800781 321.046875 223.847656 317.59375 222.128906 L 311.28125 218.433594 C 311.058594 218.3125 310.882812 218.09375 310.882812 217.84375 L 310.882812 191.113281 C 310.882812 190.859375 311.054688 190.601562 311.28125 190.472656 L 334.492188 177.132812 C 334.710938 177.007812 334.96875 177.007812 335.183594 177.132812 L 358.398438 190.472656 C 358.621094 190.605469 358.792969 190.851562 358.792969 191.113281 L 358.792969 217.84375 C 358.792969 218.101562 358.667969 218.363281 358.449219 218.484375 L 335.1875 231.828125 C 334.980469 231.945312 334.707031 231.945312 334.496094 231.828125 L 328.519531 228.28125 C 328.339844 228.179688 328.097656 228.1875 327.925781 228.28125 C 326.277344 229.214844 325.964844 229.320312 324.417969 229.855469 C 324.039062 229.988281 323.457031 230.195312 324.617188 230.84375 L 332.421875 235.425781 C 333.164062 235.855469 333.992188 236.066406 334.839844 236.066406 C 335.703125 236.066406 336.519531 235.859375 337.261719 235.425781 L 360.523438 222.085938 C 362.03125 221.210938 362.945312 219.585938 362.945312 217.851562 L 362.945312 191.121094 C 362.945312 189.382812 362.03125 187.753906 360.523438 186.886719 L 337.261719 173.496094 C 336.53125 173.082031 335.695312 172.90625 334.839844 172.90625 Z M 341.054688 191.996094 C 334.429688 191.996094 330.488281 194.804688 330.488281 199.476562 C 330.488281 204.539062 334.402344 205.9375 340.761719 206.566406 C 348.367188 207.308594 348.960938 208.421875 348.960938 209.914062 C 348.960938 212.503906 346.890625 213.605469 341.996094 213.605469 C 335.847656 213.605469 334.496094 212.074219 334.042969 209.023438 C 333.988281 208.695312 333.738281 208.429688 333.402344 208.429688 L 330.378906 208.429688 C 330.191406 208.433594 330.03125 208.503906 329.898438 208.636719 C 329.761719 208.769531 329.695312 208.929688 329.691406 209.121094 C 329.691406 213.023438 331.820312 217.636719 341.988281 217.636719 C 349.347656 217.636719 353.59375 214.761719 353.59375 209.710938 C 353.59375 204.714844 350.164062 203.367188 343.027344 202.425781 C 335.816406 201.464844 335.121094 201.007812 335.121094 199.324219 C 335.121094 197.933594 335.707031 196.074219 341.050781 196.074219 C 345.824219 196.074219 347.585938 197.097656 348.308594 200.304688 C 348.375 200.609375 348.640625 200.855469 348.953125 200.855469 L 351.972656 200.855469 C 352.15625 200.855469 352.339844 200.738281 352.46875 200.609375 C 352.59375 200.464844 352.683594 200.304688 352.664062 200.113281 C 352.199219 194.589844 348.503906 191.992188 341.058594 191.992188 Z M 341.054688 191.996094 " fill-opacity="1" fill-rule="nonzero"/></g><g clip-path="url(#858d46210e)"><path fill="#404137" d="M 198.070312 137.851562 C 197.804688 137.851562 197.558594 137.917969 197.328125 138.050781 C 196.835938 138.335938 196.589844 138.761719 196.585938 139.328125 L 196.585938 176.988281 C 196.585938 177.359375 196.414062 177.6875 196.09375 177.875 C 195.746094 178.074219 195.402344 178.074219 195.054688 177.875 L 188.882812 174.332031 C 188.421875 174.066406 187.929688 173.933594 187.398438 173.933594 C 186.871094 173.933594 186.378906 174.066406 185.917969 174.332031 L 161.273438 188.507812 C 160.351562 189.039062 159.792969 190.058594 159.792969 191.117188 L 159.792969 219.472656 C 159.792969 220 159.921875 220.492188 160.1875 220.949219 C 160.453125 221.40625 160.816406 221.765625 161.273438 222.03125 L 185.921875 236.207031 C 186.378906 236.472656 186.871094 236.605469 187.402344 236.605469 C 187.929688 236.605469 188.425781 236.472656 188.882812 236.207031 L 213.53125 222.03125 C 213.988281 221.765625 214.351562 221.40625 214.617188 220.949219 C 214.878906 220.492188 215.011719 220 215.011719 219.472656 L 215.011719 148.78125 C 215.011719 147.707031 214.421875 146.695312 213.480469 146.171875 L 198.8125 137.996094 C 198.582031 137.867188 198.324219 137.847656 198.070312 137.847656 Z M 39.523438 173.246094 C 39.054688 173.265625 38.613281 173.347656 38.191406 173.589844 L 13.546875 187.769531 C 13.085938 188.03125 12.722656 188.390625 12.457031 188.851562 C 12.195312 189.308594 12.0625 189.800781 12.0625 190.328125 L 12.113281 228.382812 C 12.113281 228.910156 12.386719 229.402344 12.855469 229.660156 C 13.3125 229.933594 13.878906 229.933594 14.335938 229.660156 L 28.957031 221.292969 C 29.882812 220.746094 30.488281 219.789062 30.488281 218.734375 L 30.488281 200.960938 C 30.488281 199.898438 31.046875 198.929688 31.96875 198.402344 L 38.191406 194.808594 C 38.652344 194.542969 39.144531 194.410156 39.675781 194.414062 C 40.203125 194.410156 40.699219 194.542969 41.15625 194.808594 L 47.378906 198.398438 C 48.300781 198.925781 48.859375 199.898438 48.859375 200.957031 L 48.859375 218.730469 C 48.859375 219.789062 49.476562 220.746094 50.390625 221.289062 L 65.007812 229.65625 C 65.46875 229.929688 66.035156 229.929688 66.492188 229.65625 C 66.945312 229.398438 67.230469 228.90625 67.230469 228.378906 L 67.28125 190.324219 C 67.285156 189.796875 67.152344 189.304688 66.886719 188.847656 C 66.625 188.386719 66.261719 188.027344 65.800781 187.765625 L 41.15625 173.59375 C 40.738281 173.351562 40.292969 173.269531 39.820312 173.25 L 39.527344 173.25 Z M 260.988281 173.589844 C 260.460938 173.589844 259.964844 173.722656 259.507812 173.984375 L 234.863281 188.164062 C 233.941406 188.695312 233.378906 189.664062 233.378906 190.722656 L 233.378906 219.078125 C 233.378906 220.144531 233.980469 221.109375 234.910156 221.636719 L 259.359375 235.523438 C 260.261719 236.039062 261.363281 236.078125 262.273438 235.574219 L 277.089844 227.351562 C 277.558594 227.089844 277.878906 226.605469 277.878906 226.070312 C 277.878906 225.539062 277.601562 225.058594 277.136719 224.792969 L 252.34375 210.613281 C 251.878906 210.351562 251.554688 209.816406 251.554688 209.285156 L 251.554688 200.417969 C 251.554688 199.890625 251.882812 199.402344 252.34375 199.140625 L 260.046875 194.707031 C 260.507812 194.445312 261.070312 194.445312 261.53125 194.707031 L 269.253906 199.140625 C 269.484375 199.269531 269.664062 199.449219 269.796875 199.679688 C 269.929688 199.910156 269.996094 200.15625 269.992188 200.417969 L 269.992188 207.410156 C 269.992188 207.671875 270.058594 207.917969 270.191406 208.148438 C 270.324219 208.375 270.503906 208.558594 270.734375 208.6875 C 271.195312 208.953125 271.753906 208.957031 272.21875 208.6875 L 286.984375 200.121094 C 287.898438 199.589844 288.464844 198.621094 288.464844 197.5625 L 288.464844 190.722656 C 288.464844 190.195312 288.332031 189.703125 288.070312 189.242188 C 287.804688 188.785156 287.441406 188.425781 286.984375 188.164062 L 262.484375 173.984375 C 262.027344 173.71875 261.535156 173.589844 261.003906 173.589844 Z M 187.296875 194.761719 C 187.4375 194.761719 187.570312 194.792969 187.695312 194.859375 L 196.140625 199.730469 C 196.367188 199.863281 196.535156 200.109375 196.535156 200.371094 L 196.535156 210.117188 C 196.535156 210.382812 196.371094 210.625 196.140625 210.757812 L 187.695312 215.632812 C 187.464844 215.761719 187.183594 215.761719 186.953125 215.632812 L 178.507812 210.757812 C 178.277344 210.625 178.113281 210.382812 178.113281 210.117188 L 178.113281 200.375 C 178.113281 200.109375 178.277344 199.867188 178.507812 199.734375 L 186.953125 194.863281 C 187.066406 194.796875 187.167969 194.765625 187.296875 194.765625 Z M 187.296875 194.761719 " fill-opacity="1" fill-rule="nonzero"/></g><g clip-path="url(#0cac4f5b29)"><path fill="#83cd29" d="M 113.558594 173.441406 C 113.027344 173.441406 112.535156 173.574219 112.074219 173.835938 L 87.429688 187.964844 C 86.507812 188.496094 85.949219 189.515625 85.949219 190.574219 L 85.949219 218.929688 C 85.949219 219.457031 86.078125 219.949219 86.34375 220.40625 C 86.609375 220.863281 86.96875 221.226562 87.429688 221.488281 L 112.074219 235.664062 C 112.535156 235.929688 113.027344 236.0625 113.558594 236.0625 C 114.085938 236.0625 114.582031 235.929688 115.039062 235.664062 L 139.683594 221.488281 C 140.144531 221.226562 140.507812 220.863281 140.769531 220.40625 C 141.035156 219.949219 141.167969 219.457031 141.167969 218.929688 L 141.167969 190.574219 C 141.167969 189.515625 140.609375 188.496094 139.683594 187.96875 L 115.039062 173.839844 C 114.582031 173.574219 114.085938 173.441406 113.554688 173.445312 Z M 260.941406 198.746094 C 260.84375 198.746094 260.734375 198.746094 260.644531 198.792969 L 255.902344 201.550781 C 255.710938 201.660156 255.613281 201.824219 255.605469 202.042969 L 255.605469 207.457031 C 255.605469 207.664062 255.726562 207.847656 255.902344 207.953125 L 260.644531 210.660156 C 260.824219 210.769531 261.007812 210.769531 261.1875 210.660156 L 265.929688 207.953125 C 266.105469 207.851562 266.226562 207.664062 266.226562 207.457031 L 266.226562 202.042969 C 266.226562 201.839844 266.105469 201.652344 265.929688 201.550781 L 261.1875 198.792969 C 261.101562 198.742188 261.039062 198.746094 260.941406 198.746094 Z M 260.941406 198.746094 " fill-opacity="1" fill-rule="nonzero"/></g></svg>