<svg width="214" height="124" viewBox="0 0 214 124" fill="none" xmlns="http://www.w3.org/2000/svg">
<mask id="mask0_28_137" style="mask-type:luminance" maskUnits="userSpaceOnUse" x="47" y="9" width="81" height="80">
<path d="M47.8992 9.03723H127.635V88.4524H47.8992V9.03723Z" fill="white"/>
</mask>
<g mask="url(#mask0_28_137)">
<mask id="mask1_28_137" style="mask-type:luminance" maskUnits="userSpaceOnUse" x="47" y="9" width="80" height="80">
<path d="M100.857 9.026C73.792 9.026 75.4827 20.7661 75.4827 20.7661L75.5133 32.9297H101.336V36.584H65.255C65.255 36.584 47.9386 34.6176 47.9386 61.9361C47.9386 89.2545 63.0518 88.288 63.0518 88.288H72.0735V75.6092C72.0735 75.6092 71.586 60.4877 86.9471 60.4877H112.561C112.561 60.4877 126.947 60.7217 126.947 46.5722V23.181C126.947 23.181 129.136 9.026 100.857 9.026ZM86.6156 17.2065C89.1837 17.2065 91.2588 19.2844 91.2588 21.8524C91.2588 24.4233 89.1837 26.5011 86.6156 26.5011C84.0448 26.5011 81.9669 24.4233 81.9669 21.8524C81.9669 19.2844 84.0448 17.2065 86.6156 17.2065Z" fill="white"/>
</mask>
<g mask="url(#mask1_28_137)">
<path d="M47.9386 9.03711V89.2545H129.136V9.03711H47.9386Z" fill="url(#paint0_linear_28_137)"/>
</g>
</g>
<mask id="mask2_28_137" style="mask-type:luminance" maskUnits="userSpaceOnUse" x="74" y="35" width="81" height="81">
<path d="M74.8696 35.6871H154.547V115.152H74.8696V35.6871Z" fill="white"/>
</mask>
<g mask="url(#mask2_28_137)">
<mask id="mask3_28_137" style="mask-type:luminance" maskUnits="userSpaceOnUse" x="75" y="35" width="80" height="81">
<path d="M101.623 115.122C128.685 115.122 126.994 103.379 126.994 103.379L126.964 91.2154H101.138V87.5638H137.219C137.219 87.5638 154.538 89.5275 154.538 62.2118C154.538 34.8933 139.425 35.8598 139.425 35.8598H130.403V48.5386C130.403 48.5386 130.888 63.6602 115.533 63.6602H89.9159C89.9159 63.6602 75.5269 63.4262 75.5269 77.5756V100.964C75.5269 100.964 73.3404 115.122 101.623 115.122ZM115.861 106.941C113.293 106.941 111.215 104.861 111.215 102.293C111.215 99.7218 113.293 97.6467 115.861 97.6467C118.432 97.6467 120.507 99.7218 120.507 102.293C120.507 104.861 118.432 106.941 115.861 106.941Z" fill="white"/>
</mask>
<g mask="url(#mask3_28_137)">
<path d="M73.3404 34.8933V115.122H154.538V34.8933H73.3404Z" fill="url(#paint1_linear_28_137)"/>
</g>
</g>
<defs>
<linearGradient id="paint0_linear_28_137" x1="48.2679" y1="8.7042" x2="129.401" y2="88.9872" gradientUnits="userSpaceOnUse">
<stop stop-color="#387EB8"/>
<stop offset="0.125" stop-color="#387EB8"/>
<stop offset="0.140625" stop-color="#387EB8"/>
<stop offset="0.15625" stop-color="#387DB7"/>
<stop offset="0.171875" stop-color="#387DB6"/>
<stop offset="0.1875" stop-color="#387CB5"/>
<stop offset="0.203125" stop-color="#387CB4"/>
<stop offset="0.21875" stop-color="#387BB3"/>
<stop offset="0.234375" stop-color="#387BB2"/>
<stop offset="0.25" stop-color="#387AB1"/>
<stop offset="0.265625" stop-color="#387AB1"/>
<stop offset="0.28125" stop-color="#3879B0"/>
<stop offset="0.296875" stop-color="#3879AF"/>
<stop offset="0.3125" stop-color="#3878AE"/>
<stop offset="0.328125" stop-color="#3778AD"/>
<stop offset="0.34375" stop-color="#3777AC"/>
<stop offset="0.359375" stop-color="#3777AB"/>
<stop offset="0.375" stop-color="#3776AB"/>
<stop offset="0.390625" stop-color="#3776AA"/>
<stop offset="0.40625" stop-color="#3775A9"/>
<stop offset="0.421875" stop-color="#3775A8"/>
<stop offset="0.4375" stop-color="#3774A7"/>
<stop offset="0.453125" stop-color="#3774A6"/>
<stop offset="0.46875" stop-color="#3773A5"/>
<stop offset="0.484375" stop-color="#3773A4"/>
<stop offset="0.494335" stop-color="#3772A4"/>
<stop offset="0.5" stop-color="#3772A3"/>
<stop offset="0.505665" stop-color="#3772A3"/>
<stop offset="0.515625" stop-color="#3771A2"/>
<stop offset="0.53125" stop-color="#3771A2"/>
<stop offset="0.546875" stop-color="#3771A1"/>
<stop offset="0.5625" stop-color="#3770A0"/>
<stop offset="0.578125" stop-color="#37709F"/>
<stop offset="0.59375" stop-color="#376F9E"/>
<stop offset="0.609375" stop-color="#376F9D"/>
<stop offset="0.625" stop-color="#376E9D"/>
<stop offset="0.640625" stop-color="#366E9C"/>
<stop offset="0.65625" stop-color="#366D9B"/>
<stop offset="0.671875" stop-color="#366D9A"/>
<stop offset="0.6875" stop-color="#366C99"/>
<stop offset="0.703125" stop-color="#366C98"/>
<stop offset="0.71875" stop-color="#366B97"/>
<stop offset="0.734375" stop-color="#366B97"/>
<stop offset="0.75" stop-color="#366A96"/>
<stop offset="0.765625" stop-color="#366A95"/>
<stop offset="0.78125" stop-color="#366994"/>
<stop offset="0.8125" stop-color="#366994"/>
<stop offset="0.875" stop-color="#366994"/>
<stop offset="1" stop-color="#366994"/>
</linearGradient>
<linearGradient id="paint1_linear_28_137" x1="72.9065" y1="35.3519" x2="155.856" y2="113.729" gradientUnits="userSpaceOnUse">
<stop stop-color="#FFE052"/>
<stop offset="0.125" stop-color="#FFE052"/>
<stop offset="0.1875" stop-color="#FFE052"/>
<stop offset="0.21875" stop-color="#FFE052"/>
<stop offset="0.234375" stop-color="#FFDF51"/>
<stop offset="0.25" stop-color="#FFDF51"/>
<stop offset="0.265625" stop-color="#FFDE50"/>
<stop offset="0.28125" stop-color="#FFDD4F"/>
<stop offset="0.296875" stop-color="#FFDD4E"/>
<stop offset="0.3125" stop-color="#FFDC4E"/>
<stop offset="0.328125" stop-color="#FFDB4D"/>
<stop offset="0.34375" stop-color="#FFDB4C"/>
<stop offset="0.359375" stop-color="#FFDA4B"/>
<stop offset="0.375" stop-color="#FFD94B"/>
<stop offset="0.390625" stop-color="#FFD94A"/>
<stop offset="0.40625" stop-color="#FFD849"/>
<stop offset="0.421875" stop-color="#FFD748"/>
<stop offset="0.4375" stop-color="#FFD748"/>
<stop offset="0.453125" stop-color="#FFD647"/>
<stop offset="0.46875" stop-color="#FFD546"/>
<stop offset="0.482837" stop-color="#FFD545"/>
<stop offset="0.484375" stop-color="#FFD445"/>
<stop offset="0.5" stop-color="#FFD445"/>
<stop offset="0.515625" stop-color="#FFD444"/>
<stop offset="0.517163" stop-color="#FFD343"/>
<stop offset="0.53125" stop-color="#FFD343"/>
<stop offset="0.546875" stop-color="#FFD242"/>
<stop offset="0.5625" stop-color="#FFD242"/>
<stop offset="0.578125" stop-color="#FFD141"/>
<stop offset="0.59375" stop-color="#FFD040"/>
<stop offset="0.609375" stop-color="#FFD03F"/>
<stop offset="0.625" stop-color="#FFCF3F"/>
<stop offset="0.640625" stop-color="#FFCE3E"/>
<stop offset="0.65625" stop-color="#FFCE3D"/>
<stop offset="0.671875" stop-color="#FFCD3C"/>
<stop offset="0.6875" stop-color="#FFCC3C"/>
<stop offset="0.703125" stop-color="#FFCC3B"/>
<stop offset="0.71875" stop-color="#FFCB3A"/>
<stop offset="0.734375" stop-color="#FFCA39"/>
<stop offset="0.75" stop-color="#FFCA39"/>
<stop offset="0.765625" stop-color="#FFC938"/>
<stop offset="0.78125" stop-color="#FFC837"/>
<stop offset="0.796875" stop-color="#FFC836"/>
<stop offset="0.8125" stop-color="#FFC735"/>
<stop offset="0.828125" stop-color="#FFC635"/>
<stop offset="0.84375" stop-color="#FFC634"/>
<stop offset="0.859375" stop-color="#FFC533"/>
<stop offset="0.875" stop-color="#FFC432"/>
<stop offset="0.890625" stop-color="#FFC432"/>
<stop offset="0.90625" stop-color="#FFC331"/>
<stop offset="0.9375" stop-color="#FFC331"/>
<stop offset="1" stop-color="#FFC331"/>
</linearGradient>
</defs>
</svg>
