<svg width="106" height="101" viewBox="0 0 106 101" fill="none" xmlns="http://www.w3.org/2000/svg">
<path d="M0 50.6533C0 59.0544 7.80178 66.8972 20.1019 71.3179C17.6457 84.3202 19.6617 94.7999 26.3955 98.8835C33.3171 103.08 43.6286 100.175 53.4155 91.1797C62.9556 99.8121 72.5975 103.209 79.325 99.1143C86.2399 94.905 88.3432 83.7145 85.819 70.3064C98.6303 65.8525 105.797 59.165 105.797 50.6533C105.797 42.4469 97.9803 35.3473 85.846 30.9549C88.5634 16.9927 86.2609 6.76722 79.2484 2.51506C72.4877 -1.5843 62.7338 1.98871 53.0534 10.8472C42.9826 1.44461 33.325 -1.42611 26.3193 2.83845C19.5651 6.94946 17.6378 17.6197 20.1019 30.8627C8.21711 35.2198 0 42.4798 0 50.6533Z" fill="white"/>
<path d="M83.2748 35.3167C82.3001 34.9639 81.2901 34.6301 80.2502 34.3145C80.4212 33.581 80.578 32.857 80.7175 32.1453C83.007 20.4592 81.5101 11.0449 76.3983 7.94525C71.4968 4.97313 63.4807 8.07204 55.3849 15.4804C54.6064 16.1928 53.8257 16.9471 53.0453 17.7375C52.5254 17.2145 52.0063 16.7091 51.4885 16.2257C43.0038 8.30417 34.4992 4.96592 29.3925 8.0745C24.4956 11.0552 23.0455 19.9057 25.1064 30.9806C25.3054 32.0504 25.5381 33.1428 25.8011 34.2535C24.5975 34.6127 23.4355 34.9957 22.3237 35.4032C12.3763 39.0499 6.02344 44.7652 6.02344 50.6934C6.02344 56.8161 12.8432 62.9573 23.2042 66.6811C24.0218 66.9749 24.8703 67.2528 25.7446 67.5165C25.4608 68.7178 25.2139 69.895 25.0067 71.0431C23.0416 81.9259 24.5762 90.5672 29.46 93.5292C34.5046 96.588 42.9707 93.4439 51.2145 85.8666C51.8661 85.2677 52.52 84.6325 53.1751 83.9667C54.0242 84.8265 54.8719 85.6401 55.7152 86.4033C63.7003 93.6287 71.5869 96.5463 76.4662 93.5761C81.5057 90.5085 83.1435 81.2257 81.0172 69.9316C80.8548 69.069 80.6658 68.1878 80.4536 67.2909C81.0481 67.1061 81.6318 66.9153 82.2009 66.7169C92.9722 62.9644 99.9803 56.8979 99.9803 50.6934C99.9803 44.7437 93.4225 38.9899 83.2748 35.3167Z" fill="#53C1DE"/>
<path d="M80.9386 62.711C80.4249 62.8898 79.8977 63.0627 79.3605 63.2303C78.1715 59.272 76.5666 55.0629 74.6027 50.7142C76.4768 46.469 78.0196 42.3138 79.1754 38.3811C80.1365 38.6736 81.0694 38.982 81.9683 39.3075C90.6629 42.4548 95.9665 47.1081 95.9665 50.6936C95.9665 54.5128 90.2388 59.4707 80.9386 62.711ZM77.0797 70.7514C78.0199 75.7455 78.1542 80.2607 77.5314 83.7905C76.9718 86.9622 75.8465 89.0769 74.455 89.9238C71.494 91.7259 65.1619 89.3834 58.3329 83.2042C57.55 82.4959 56.7615 81.7395 55.9704 80.939C58.6179 77.8944 61.2638 74.355 63.8462 70.4241C68.3883 70.0003 72.6796 69.3075 76.5711 68.3615C76.7628 69.1745 76.933 69.9718 77.0797 70.7514ZM38.0555 89.6124C35.1625 90.6867 32.8584 90.7174 31.4656 89.873C28.502 88.0756 27.2699 81.1374 28.9505 71.8305C29.143 70.7646 29.3721 69.6697 29.6362 68.5506C33.4851 69.4455 37.7449 70.0895 42.2979 70.4776C44.8977 74.3241 47.62 77.8596 50.3635 80.9554C49.7641 81.5638 49.167 82.1431 48.5733 82.6889C44.9279 86.0395 41.2749 88.4167 38.0555 89.6124ZM24.5024 62.6876C19.9209 61.0411 16.1374 58.9011 13.544 56.5659C11.2137 54.4674 10.0371 52.3841 10.0371 50.6936C10.0371 47.0961 15.1378 42.5076 23.6449 39.3888C24.6771 39.0103 25.7577 38.6537 26.879 38.3187C28.0547 42.3402 29.597 46.5447 31.4583 50.7963C29.573 55.1111 28.0088 59.3826 26.8215 63.4512C26.0221 63.2095 25.2476 62.9552 24.5024 62.6876ZM29.0455 30.1703C27.2797 20.6815 28.4524 13.5236 31.4034 11.7274C34.5467 9.8139 41.4975 12.5421 48.8233 19.382C49.2916 19.8191 49.7617 20.2767 50.2332 20.7501C47.5033 23.8323 44.8059 27.3413 42.2292 31.1651C37.8103 31.5958 33.5804 32.2876 29.6914 33.214C29.4469 32.1798 29.2303 31.1637 29.0455 30.1703ZM69.5742 40.6933C68.6445 39.0047 67.6901 37.3561 66.7171 35.7525C69.7149 36.1509 72.5871 36.6799 75.2844 37.3272C74.4746 40.0562 73.4653 42.9094 72.2772 45.8344C71.4249 44.133 70.5235 42.4175 69.5742 40.6933ZM53.0467 23.7664C54.8981 25.8754 56.7521 28.2301 58.5757 30.7849C56.7381 30.6937 54.8777 30.6462 53.0019 30.6462C51.1438 30.6462 49.2971 30.6926 47.4709 30.7823C49.2963 28.2512 51.1664 25.8997 53.0467 23.7664ZM36.4133 40.7225C35.4846 42.4158 34.5999 44.1219 33.761 45.8312C32.5922 42.9164 31.5922 40.0502 30.7754 37.2826C33.4562 36.6518 36.3148 36.136 39.2936 35.7451C38.3068 37.3635 37.3445 39.0242 36.4133 40.7221V40.7225ZM39.3794 65.9432C36.3018 65.5822 33.4001 65.0929 30.7201 64.4795C31.5499 61.6625 32.5719 58.7351 33.7656 55.7575C34.6066 57.4656 35.4948 59.1724 36.4292 60.8694H36.4294C37.3812 62.5983 38.3672 64.2917 39.3794 65.9432ZM53.1577 77.9184C51.2554 75.7601 49.3578 73.3727 47.5046 70.8047C49.3037 70.8789 51.1378 70.9169 53.0019 70.9169C54.917 70.9169 56.8102 70.8715 58.6736 70.7843C56.8439 73.3986 54.9966 75.7896 53.1577 77.9184ZM72.3155 55.6058C73.5713 58.6155 74.6299 61.5277 75.4705 64.2967C72.7463 64.9501 69.805 65.4765 66.706 65.8676C67.6814 64.2423 68.6442 62.5654 69.5903 60.8404C70.5474 59.0952 71.4562 57.3474 72.3155 55.6058ZM66.1135 58.7319C64.6448 61.4097 63.1369 63.9659 61.6061 66.3788C58.8181 66.5884 55.9376 66.6964 53.0019 66.6964C50.078 66.6964 47.2339 66.6009 44.4951 66.414C42.9026 63.9694 41.362 61.4056 39.9027 58.755H39.903C38.4475 56.1115 37.1079 53.4457 35.894 50.7949C37.1075 48.1379 38.4436 45.4691 39.8908 42.8304L39.8905 42.831C41.3414 40.1852 42.8685 37.6339 44.4463 35.2047C47.2406 34.9826 50.1059 34.8667 53.0017 34.8667H53.0019C55.9107 34.8667 58.7798 34.9834 61.5732 35.2075C63.1269 37.619 64.6436 40.162 66.1003 42.8081C67.5735 45.4839 68.9268 48.1349 70.1507 50.7349C68.9305 53.3796 67.5802 56.0574 66.1135 58.7319ZM74.3935 11.6018C77.5398 13.5097 78.7633 21.204 76.7865 31.2937C76.6604 31.9375 76.5184 32.5932 76.3642 33.2578C72.4662 32.312 68.2333 31.6083 63.8015 31.1711C61.2198 27.3053 58.5444 23.7908 55.859 20.7482C56.581 20.0179 57.302 19.3215 58.02 18.6643C64.9565 12.3168 71.4396 9.81073 74.3935 11.6018Z" fill="white"/>
<path d="M53.0033 41.8716C57.6369 41.8716 61.3933 45.8213 61.3933 50.6937C61.3933 55.5659 57.6369 59.5158 53.0033 59.5158C48.3697 59.5158 44.6133 55.5659 44.6133 50.6937C44.6133 45.8213 48.3697 41.8716 53.0033 41.8716Z" fill="#53C1DE"/>
</svg>
