<svg width="100" height="102" viewBox="0 0 100 102" fill="none" xmlns="http://www.w3.org/2000/svg">
<path d="M0 50.8319V101.114H50H100V50.8319V0.550171H50H0V50.8319Z" fill="#007ACC"/>
<path d="M22.1132 51.1655L22.0815 55.2838L28.5894 55.2838H35.0974V73.8801V92.4763H39.7005H44.3037V73.8801L44.3037 55.2838H50.8116H57.3196V51.2453C57.3196 49.0106 57.272 47.1429 57.2085 47.0951C57.1608 47.0312 49.2402 46.9993 39.637 47.0152L22.1609 47.0631L22.1132 51.1655Z" fill="white"/>
<path d="M80.6906 46.9463C83.2302 47.5848 85.1668 48.7182 86.9445 50.5698C87.8652 51.5595 89.2302 53.3632 89.3414 53.7942C89.3731 53.9219 85.0239 56.859 82.389 58.5032C82.2937 58.567 81.9128 58.152 81.4842 57.5135C80.1985 55.6299 78.8493 54.8158 76.7858 54.6722C73.754 54.4647 71.8017 56.0609 71.8175 58.7266C71.8175 59.5088 71.9287 59.9717 72.2461 60.6102C72.9128 61.9989 74.1509 62.829 78.0398 64.521C85.1985 67.6177 88.262 69.6609 90.1668 72.5661C92.2937 75.8065 92.7699 80.9783 91.3255 84.8253C89.7382 89.0074 85.8017 91.8487 80.262 92.7905C78.5477 93.0938 74.4842 93.0459 72.6429 92.7107C68.6271 91.9924 64.8175 89.9971 62.4683 87.3792C61.5477 86.3576 59.7541 83.6919 59.8652 83.5004C59.9128 83.4365 60.3255 83.1811 60.7858 82.9098C61.2302 82.6544 62.9128 81.6806 64.5001 80.7548L67.3731 79.0788L67.9763 79.9727C68.8175 81.2656 70.6588 83.0375 71.7699 83.6281C74.9604 85.3201 79.3414 85.0806 81.5001 83.1332C82.4207 82.2872 82.8017 81.4093 82.8017 80.1163C82.8017 78.9511 82.6588 78.4403 82.0556 77.5623C81.2779 76.445 79.6906 75.5032 75.1826 73.5398C70.0239 71.305 67.8017 69.9163 65.7699 67.7135C64.5953 66.4365 63.4842 64.3933 63.0239 62.6853C62.6429 61.2647 62.5477 57.705 62.8493 56.2684C63.9128 51.2562 67.6747 47.7604 73.1033 46.7229C74.8652 46.3877 78.9604 46.5154 80.6906 46.9463Z" fill="white"/>
</svg>
